<svg width="521" height="272" viewBox="0 0 521 272" fill="none" xmlns="http://www.w3.org/2000/svg">
<path d="M33.618 40.018V39.784V61H32.994C32.994 61 32.838 54.76 31.59 54.76C31.434 54.76 31.2 54.916 30.966 55.228C28.392 58.426 24.804 60.922 19.188 60.922C-6.37956e-07 60.922 1.248 33.934 1.248 33.934C1.248 33.934 0.155999 6.4 19.188 6.4C24.414 6.4 28.08 8.506 30.732 11.548C32.37 13.03 32.838 6.478 32.838 6.478H33.462L33.54 27.85H32.292C32.058 24.262 31.59 19.426 30.498 15.994C28.782 10.924 24.102 7.804 19.188 7.804C6.318 7.804 7.176 33.622 7.176 33.622C7.176 33.622 6.084 59.518 19.188 59.518C26.52 59.518 30.264 52.03 31.278 45.79C30.654 45.478 30.03 45.01 29.406 44.386C24.804 39.706 17.628 32.53 12.948 32.53C12.168 32.53 11.544 32.686 10.92 33.076C10.92 33.076 13.728 29.41 17.55 29.332C23.556 29.176 31.122 37.834 33.384 39.784C33.462 39.862 33.54 39.94 33.618 40.018ZM59.7072 44.854H60.4092V61H35.4492V60.22C35.4492 60.22 39.5832 59.44 39.5832 53.434V13.966C39.5832 8.038 35.4492 7.18 35.4492 7.18V6.4H49.4112V7.18C49.4112 7.18 45.3552 8.428 45.3552 13.342V59.596H54.0132C59.7072 59.596 59.7072 44.854 59.7072 44.854ZM97.5488 34.012C97.5488 34.012 98.7968 61.546 79.2187 61.546C59.6407 61.546 60.9667 34.012 60.9667 34.012C60.9667 34.012 59.7967 5.854 79.2187 5.854C98.4848 5.854 97.5488 34.012 97.5488 34.012ZM79.2187 60.142C92.1668 60.142 91.5428 33.7 91.5428 33.7C91.5428 33.7 91.5428 7.258 79.2187 7.258C66.1147 7.258 66.9727 33.7 66.9727 33.7C66.9727 33.7 65.8807 60.142 79.2187 60.142ZM136.748 7.18L136.826 6.4H147.122L146.966 7.18C146.966 7.18 142.754 8.038 141.818 13.966L133.16 53.434C132.536 57.802 134.486 59.362 135.578 59.908C136.124 60.142 136.436 60.22 136.436 60.22L136.592 61H122.552L122.396 60.22C122.396 60.22 126.296 59.44 124.97 53.434L119.744 30.424L114.674 53.434C114.05 57.802 115.922 59.362 117.092 59.908C117.56 60.142 117.95 60.22 117.95 60.22L118.106 61H104.066L103.832 60.22C103.832 60.22 107.81 59.44 106.484 53.434L97.436 13.966C96.11 8.038 91.82 7.18 91.82 7.18L91.586 6.4H105.704L105.86 7.18C105.86 7.18 101.882 8.038 103.286 13.966L112.256 53.434C112.334 53.824 112.412 54.136 112.49 54.448C112.568 54.136 112.646 53.824 112.724 53.434L121.382 13.966C121.46 13.264 121.46 12.718 121.46 12.172C121.46 12.016 121.46 11.938 121.46 11.782C121.226 7.804 118.262 7.18 118.262 7.18L118.34 6.4H128.636L128.48 7.18C128.48 7.18 124.19 8.038 123.332 13.966L122.552 17.476L130.742 53.434C130.82 53.824 130.898 54.136 131.054 54.448C131.132 54.136 131.132 53.824 131.21 53.434L139.868 13.966C140.726 8.038 136.748 7.18 136.748 7.18Z" fill="#2B2B2B"/>
<path d="M85.778 92.496L96.464 100.374C110.426 109.734 106.916 129.702 88.742 129.702C83.906 129.702 80.24 126.972 77.9 124.242C77.822 124.242 77.822 124.164 77.744 124.086C77.51 123.852 77.354 123.774 77.198 123.774C76.028 123.774 75.872 129 75.872 129H75.248L75.17 107.706H76.418C76.418 107.706 76.262 128.22 88.742 128.22C94.046 128.22 98.804 124.866 98.804 116.286C98.804 108.642 93.656 106.302 90.614 104.118L82.814 98.268C72.206 91.248 74.702 74.01 90.224 74.01C95.138 74.01 98.57 76.74 100.754 79.392C100.988 79.704 101.222 79.86 101.456 79.86C102.626 79.86 102.782 74.634 102.782 74.634H103.406V96.006H102.236C102.236 96.006 102.47 75.492 90.224 75.492C85.856 75.492 82.112 79.626 82.112 84.774C82.112 88.986 84.14 91.248 85.778 92.496ZM111.565 129V128.22C111.565 128.22 115.699 127.362 115.699 121.434V81.966C115.699 78.222 114.139 76.584 112.969 75.804H112.111C106.417 75.804 106.417 90.546 106.417 90.546H105.715V74.4H131.065V90.546H130.363C130.363 90.546 130.363 75.804 124.669 75.804H123.889C122.641 76.584 121.081 78.222 121.081 81.966V121.434C121.081 127.362 125.215 128.22 125.215 128.22V129H111.565ZM167.893 102.012C167.893 102.012 169.141 129.546 149.562 129.546C129.984 129.546 131.31 102.012 131.31 102.012C131.31 102.012 130.14 73.854 149.562 73.854C168.829 73.854 167.893 102.012 167.893 102.012ZM149.562 128.142C162.511 128.142 161.887 101.7 161.887 101.7C161.887 101.7 161.887 75.258 149.562 75.258C136.458 75.258 137.316 101.7 137.316 101.7C137.316 101.7 136.224 128.142 149.562 128.142ZM195.67 88.05C195.67 88.05 196.216 102.246 184.204 102.246L177.73 102.168L183.034 104.274L192.706 122.37C195.826 128.064 198.868 128.22 198.868 128.22V129H189.196L176.482 102.168V121.434C176.482 127.44 180.694 128.22 180.694 128.22V129H166.576V128.22C166.966 128.142 170.32 127.284 170.71 122.448V79.86C170.32 75.414 166.576 75.18 166.576 75.18V74.4H181.474C192.316 74.4 195.436 82.278 195.67 88.05ZM181.63 100.998C190.678 100.998 190.132 87.66 190.132 87.66V87.504C190.132 75.726 180.694 75.726 180.694 75.726H176.482V100.998H181.63ZM213.601 74.4V75.18C213.601 75.18 209.389 76.038 209.389 81.966V121.434C209.389 127.44 213.601 128.22 213.601 128.22V129H199.482V128.22C199.482 128.22 203.616 127.44 203.616 121.434V81.966C203.616 76.038 199.482 75.18 199.482 75.18V74.4H213.601ZM242.864 129H215.174V128.22C215.174 128.22 219.308 127.44 219.308 121.434V81.966C219.308 75.726 215.174 75.18 215.174 75.18V74.4H242.864V90.546H242.162C242.162 90.546 242.162 75.804 236.468 75.804H225.158V93.978H234.05C237.56 93.978 237.638 83.448 237.638 83.448H238.34V105.912H237.638C237.638 105.912 238.028 95.382 234.206 95.382H225.158V127.596H236.468C242.162 127.596 242.162 112.854 242.162 112.854H242.864V129ZM256.174 92.496L266.86 100.374C280.822 109.734 277.312 129.702 259.138 129.702C254.302 129.702 250.636 126.972 248.296 124.242C248.218 124.242 248.218 124.164 248.14 124.086C247.906 123.852 247.75 123.774 247.594 123.774C246.424 123.774 246.268 129 246.268 129H245.644L245.566 107.706H246.814C246.814 107.706 246.658 128.22 259.138 128.22C264.442 128.22 269.2 124.866 269.2 116.286C269.2 108.642 264.052 106.302 261.01 104.118L253.21 98.268C242.602 91.248 245.098 74.01 260.62 74.01C265.534 74.01 268.966 76.74 271.15 79.392C271.384 79.704 271.618 79.86 271.852 79.86C273.022 79.86 273.178 74.634 273.178 74.634H273.802V96.006H272.632C272.632 96.006 272.866 75.492 260.62 75.492C256.252 75.492 252.508 79.626 252.508 84.774C252.508 88.986 254.536 91.248 256.174 92.496Z" fill="#2B2B2B"/>
<path d="M325.494 202.288C325.409 202.373 325.302 202.395 325.174 202.352C325.089 202.309 324.939 202.245 324.726 202.16C324.47 202.075 324.278 202.032 324.15 202.032C324.065 201.989 323.915 201.968 323.702 201.968C322.849 201.968 321.846 202.288 320.694 202.928C319.585 203.525 318.39 204.315 317.11 205.296C315.873 206.277 314.571 207.387 313.206 208.624C311.883 209.861 310.603 211.12 309.366 212.4C308.129 213.637 306.977 214.832 305.91 215.984C304.843 217.136 303.947 218.117 303.222 218.928C299.211 223.536 295.478 227.419 292.022 230.576C288.609 233.733 285.345 236.272 282.23 238.192C279.158 240.155 276.193 241.541 273.334 242.352C270.475 243.205 267.638 243.632 264.822 243.632C263.585 243.632 262.326 243.483 261.046 243.184C259.766 242.885 258.614 242.331 257.59 241.52C256.609 240.752 255.841 239.664 255.286 238.256C254.774 236.891 254.625 235.141 254.838 233.008C254.966 231.429 255.35 229.851 255.99 228.272C256.673 226.693 257.547 225.179 258.614 223.728C259.681 222.235 260.897 220.827 262.262 219.504C263.627 218.181 265.121 216.965 266.742 215.856C268.022 215.003 269.323 214.235 270.646 213.552C271.969 212.869 273.249 212.272 274.486 211.76C274.145 211.461 273.846 210.949 273.59 210.224C273.377 209.456 273.355 208.624 273.526 207.728C273.91 205.68 274.827 203.888 276.278 202.352C277.771 200.773 279.542 199.472 281.59 198.448C283.681 197.381 285.942 196.592 288.374 196.08C290.849 195.525 293.238 195.248 295.542 195.248C298.273 195.248 300.854 195.419 303.286 195.76C305.761 196.059 308.022 196.421 310.07 196.848C312.118 197.275 313.91 197.723 315.446 198.192C316.982 198.619 318.198 198.96 319.094 199.216C319.478 199.344 319.947 199.515 320.502 199.728C321.099 199.899 321.675 200.112 322.23 200.368C322.827 200.581 323.382 200.816 323.894 201.072C324.406 201.285 324.811 201.477 325.11 201.648C325.195 201.733 325.302 201.819 325.43 201.904C325.558 201.989 325.579 202.117 325.494 202.288ZM322.742 201.328C322.102 201.115 321.419 200.923 320.694 200.752C320.011 200.539 319.499 200.389 319.158 200.304C317.665 199.963 316.15 199.621 314.614 199.28C313.121 198.896 311.435 198.576 309.558 198.32C307.723 198.021 305.675 197.787 303.414 197.616C301.153 197.445 298.55 197.36 295.606 197.36C292.961 197.36 290.422 197.595 287.99 198.064C285.601 198.533 283.446 199.216 281.526 200.112C279.606 201.008 278.006 202.117 276.726 203.44C275.489 204.763 274.699 206.277 274.358 207.984C274.23 208.795 274.23 209.52 274.358 210.16C274.529 210.757 274.785 211.227 275.126 211.568C277.217 210.757 279.222 210.203 281.142 209.904C283.062 209.605 284.769 209.456 286.262 209.456C287.371 209.456 288.459 209.563 289.526 209.776C290.593 209.989 291.51 210.352 292.278 210.864C293.089 211.333 293.686 211.973 294.07 212.784C294.454 213.552 294.497 214.491 294.198 215.6C294.027 216.197 293.771 216.688 293.43 217.072C293.131 217.413 292.918 217.52 292.79 217.392C292.705 217.307 292.747 217.136 292.918 216.88C293.089 216.581 293.238 216.155 293.366 215.6C293.622 214.576 293.579 213.723 293.238 213.04C292.939 212.357 292.449 211.803 291.766 211.376C291.083 210.949 290.251 210.651 289.27 210.48C288.289 210.309 287.286 210.224 286.262 210.224C285.11 210.224 283.809 210.416 282.358 210.8C280.95 211.141 279.457 211.632 277.878 212.272C276.342 212.869 274.785 213.595 273.206 214.448C271.627 215.259 270.134 216.155 268.726 217.136C267.19 218.16 265.675 219.312 264.182 220.592C262.731 221.872 261.409 223.216 260.214 224.624C259.062 225.989 258.081 227.397 257.27 228.848C256.502 230.299 256.033 231.749 255.862 233.2C255.691 234.992 255.819 236.485 256.246 237.68C256.673 238.875 257.291 239.835 258.102 240.56C258.955 241.285 259.937 241.797 261.046 242.096C262.155 242.395 263.307 242.544 264.502 242.544C266.849 242.544 269.366 241.947 272.054 240.752C274.742 239.6 277.558 238 280.502 235.952C283.446 233.861 286.497 231.408 289.654 228.592C292.811 225.776 296.011 222.747 299.254 219.504C300.235 218.523 301.366 217.413 302.646 216.176C303.926 214.939 305.27 213.68 306.678 212.4C308.086 211.12 309.537 209.861 311.03 208.624C312.523 207.344 313.974 206.192 315.382 205.168C316.79 204.144 318.113 203.291 319.35 202.608C320.63 201.925 321.761 201.499 322.742 201.328ZM322.616 229.168C322.787 229.339 322.808 229.509 322.68 229.68C322.552 229.851 322.403 230 322.232 230.128C321.251 230.981 320.099 231.963 318.776 233.072C317.496 234.139 316.259 235.077 315.064 235.888C313.784 236.827 312.504 237.531 311.224 238C309.987 238.512 309.005 238.683 308.28 238.512C307.896 238.427 307.555 238.213 307.256 237.872C307 237.531 306.829 237.104 306.744 236.592C306.701 236.08 306.765 235.504 306.936 234.864C307.149 234.224 307.512 233.52 308.024 232.752C308.408 232.197 308.792 231.707 309.176 231.28C309.56 230.811 309.965 230.363 310.392 229.936C310.819 229.467 311.288 228.997 311.8 228.528C312.312 228.059 312.888 227.525 313.528 226.928C314.083 226.416 314.765 225.819 315.576 225.136C316.429 224.411 317.219 223.707 317.944 223.024C318.712 222.341 319.288 221.744 319.672 221.232C320.099 220.677 320.163 220.336 319.864 220.208C319.608 220.123 319.139 220.208 318.456 220.464C317.816 220.677 317.048 221.019 316.152 221.488C315.256 221.957 314.253 222.533 313.144 223.216C312.077 223.856 311.011 224.56 309.944 225.328C308.877 226.053 307.853 226.8 306.872 227.568C305.891 228.336 305.037 229.061 304.312 229.744C303.288 230.725 302.435 231.557 301.752 232.24C301.112 232.88 300.515 233.52 299.96 234.16C299.448 234.757 298.915 235.419 298.36 236.144C297.763 236.869 297.037 237.765 296.184 238.832C295.971 238.832 295.821 238.725 295.736 238.512C295.608 238.341 295.523 238.128 295.48 237.872C295.437 237.573 295.437 237.296 295.48 237.04C295.48 236.741 295.523 236.507 295.608 236.336C296.461 234.715 297.635 232.987 299.128 231.152C300.579 229.275 302.157 227.44 303.864 225.648C304.888 224.539 305.933 223.536 307 222.64C308.067 221.701 308.984 220.976 309.752 220.464C310.307 220.123 310.968 219.867 311.736 219.696C312.547 219.525 313.357 219.44 314.168 219.44C313.016 220.251 311.608 221.424 309.944 222.96C308.323 224.496 306.765 226.096 305.272 227.76C306.211 226.992 307.405 226.075 308.856 225.008C310.349 223.941 311.864 222.96 313.4 222.064C314.936 221.125 316.387 220.379 317.752 219.824C319.117 219.227 320.12 219.035 320.76 219.248C321.784 219.589 322.275 220.144 322.232 220.912C322.189 221.637 321.848 222.469 321.208 223.408C320.568 224.347 319.779 225.285 318.84 226.224C317.901 227.163 317.048 227.973 316.28 228.656C315.256 229.595 314.317 230.491 313.464 231.344C312.611 232.155 311.843 232.923 311.16 233.648C310.008 234.843 309.283 235.717 308.984 236.272C308.728 236.827 308.771 237.232 309.112 237.488C309.411 237.701 310.136 237.573 311.288 237.104C312.44 236.592 313.635 235.888 314.872 234.992C315.427 234.608 316.024 234.16 316.664 233.648C317.304 233.136 317.923 232.624 318.52 232.112C319.16 231.6 319.757 231.109 320.312 230.64C320.867 230.128 321.379 229.68 321.848 229.296C321.976 229.211 322.104 229.125 322.232 229.04C322.36 228.955 322.488 228.997 322.616 229.168ZM339.959 214.384C340.215 214.597 340.108 215.067 339.639 215.792C339.17 216.517 338.231 217.371 336.823 218.352C336.055 218.907 335.244 219.461 334.391 220.016C333.58 220.528 332.94 221.019 332.471 221.488C332.13 221.915 331.852 222.448 331.639 223.088C331.468 223.685 331.34 224.24 331.255 224.752C331.127 225.477 330.978 226.331 330.807 227.312C330.679 228.251 330.402 229.253 329.975 230.32C329.548 231.387 328.93 232.453 328.119 233.52C327.351 234.587 326.263 235.589 324.855 236.528C326.946 235.547 328.951 234.352 330.871 232.944C332.834 231.536 334.562 230.171 336.055 228.848C336.268 228.635 336.482 228.635 336.695 228.848C336.823 228.933 336.844 229.061 336.759 229.232C336.674 229.403 336.588 229.531 336.503 229.616C335.564 230.469 334.583 231.28 333.559 232.048C332.535 232.816 331.532 233.541 330.551 234.224C329.57 234.864 328.61 235.44 327.671 235.952C326.775 236.464 325.986 236.869 325.303 237.168C324.748 237.424 324.151 237.659 323.511 237.872C322.871 238.043 322.231 238.171 321.591 238.256C320.994 238.384 320.439 238.469 319.927 238.512C319.372 238.555 318.946 238.555 318.647 238.512C317.794 238.469 317.068 238.277 316.471 237.936C315.874 237.552 315.596 236.933 315.639 236.08C315.639 235.568 315.852 234.992 316.279 234.352C316.663 233.669 317.218 233.008 317.943 232.368C318.242 232.155 318.69 231.813 319.287 231.344C319.842 230.832 320.311 230.405 320.695 230.064C321.292 229.552 321.826 229.125 322.295 228.784C322.807 228.4 323.276 228.208 323.703 228.208C324.343 227.653 325.026 227.077 325.751 226.48C326.476 225.84 327.18 225.2 327.863 224.56C328.546 223.92 329.186 223.323 329.783 222.768C330.423 222.171 330.935 221.637 331.319 221.168C332.087 220.229 332.791 219.419 333.431 218.736C334.071 218.011 334.775 217.307 335.543 216.624C336.652 215.6 337.57 214.896 338.295 214.512C339.02 214.085 339.575 214.043 339.959 214.384ZM330.935 222.576C330.082 223.557 329.036 224.581 327.799 225.648C326.604 226.715 325.367 227.781 324.087 228.848C323.874 229.531 322.914 230.405 321.207 231.472C320.823 231.771 320.311 232.133 319.671 232.56C319.031 232.944 318.476 233.307 318.007 233.648C317.068 234.373 316.556 235.12 316.471 235.888C316.428 236.357 316.599 236.699 316.983 236.912C317.324 237.083 317.687 237.168 318.071 237.168C319.052 237.168 320.183 236.827 321.463 236.144C322.743 235.461 324.002 234.416 325.239 233.008C325.794 232.411 326.37 231.664 326.967 230.768C327.564 229.872 328.119 228.955 328.631 228.016C329.143 227.035 329.591 226.075 329.975 225.136C330.402 224.155 330.722 223.301 330.935 222.576ZM404.655 207.216C404.356 208.709 403.844 209.883 403.118 210.736C402.393 211.589 401.732 212.165 401.135 212.464C400.879 212.592 400.708 212.656 400.623 212.656C400.537 212.613 400.473 212.549 400.431 212.464C400.388 212.336 400.367 212.272 400.367 212.272C400.409 212.229 400.559 212.101 400.814 211.888C401.284 211.504 401.732 210.949 402.159 210.224C402.628 209.456 402.948 208.624 403.118 207.728C403.417 206.192 403.396 204.72 403.055 203.312C402.756 201.904 402.052 200.667 400.943 199.6C399.876 198.533 398.382 197.701 396.463 197.104C394.585 196.464 392.217 196.165 389.359 196.208C387.055 196.251 384.644 196.656 382.127 197.424C379.652 198.192 377.156 199.216 374.639 200.496C372.164 201.776 369.689 203.248 367.215 204.912C364.74 206.533 362.393 208.219 360.175 209.968C359.193 210.779 358.127 211.675 356.975 212.656C355.823 213.595 354.67 214.576 353.518 215.6C352.409 216.581 351.343 217.541 350.319 218.48C349.295 219.376 348.42 220.165 347.694 220.848C348.164 220.848 348.911 220.827 349.934 220.784C351.001 220.741 351.897 220.763 352.622 220.848C352.708 220.848 352.793 220.869 352.878 220.912C353.006 220.955 353.028 221.083 352.943 221.296C352.815 221.509 352.58 221.616 352.239 221.616C351.983 221.616 351.62 221.616 351.15 221.616C350.681 221.616 350.169 221.637 349.615 221.68C349.103 221.68 348.591 221.701 348.078 221.744C347.567 221.744 347.119 221.765 346.734 221.808C346.137 222.405 345.582 222.96 345.07 223.472C344.558 223.984 343.961 224.603 343.278 225.328C339.95 228.784 337.476 231.557 335.854 233.648C334.276 235.696 333.913 236.976 334.766 237.488C335.022 237.659 335.385 237.701 335.854 237.616C336.324 237.488 336.836 237.296 337.39 237.04C337.988 236.741 338.585 236.4 339.182 236.016C339.78 235.589 340.334 235.184 340.846 234.8C341.23 234.501 341.7 234.139 342.254 233.712C342.809 233.243 343.407 232.731 344.047 232.176C344.687 231.621 345.327 231.067 345.967 230.512C346.607 229.957 347.183 229.445 347.694 228.976C347.823 228.891 347.972 228.805 348.142 228.72C348.313 228.635 348.463 228.656 348.59 228.784C348.719 228.997 348.697 229.189 348.526 229.36C348.399 229.488 348.271 229.637 348.142 229.808C347.758 230.192 347.268 230.64 346.67 231.152C346.116 231.621 345.519 232.133 344.878 232.688C344.238 233.2 343.577 233.733 342.894 234.288C342.254 234.843 341.636 235.333 341.038 235.76C339.63 236.827 338.308 237.637 337.07 238.192C335.833 238.747 334.745 238.853 333.806 238.512C332.782 238.128 332.27 237.403 332.27 236.336C332.228 235.227 332.569 234.053 333.294 232.816C334.66 230.555 337.86 226.885 342.894 221.808C342.34 221.808 341.742 221.829 341.102 221.872C340.462 221.915 339.758 221.979 338.99 222.064C338.564 222.107 338.393 222 338.478 221.744C338.521 221.616 338.606 221.531 338.734 221.488C338.862 221.445 338.969 221.403 339.054 221.36C339.225 221.317 339.502 221.275 339.886 221.232C340.27 221.189 340.676 221.168 341.102 221.168C341.572 221.125 342.041 221.083 342.51 221.04C342.98 220.997 343.406 220.976 343.79 220.976C346.137 218.629 348.569 216.368 351.087 214.192C353.604 211.973 356.207 209.883 358.895 207.92C361.199 206.256 363.631 204.656 366.191 203.12C368.751 201.584 371.353 200.24 373.999 199.088C376.644 197.936 379.268 197.019 381.871 196.336C384.516 195.653 387.055 195.291 389.487 195.248C392.601 195.205 395.183 195.547 397.231 196.272C399.279 196.955 400.9 197.872 402.095 199.024C403.289 200.133 404.079 201.413 404.463 202.864C404.847 204.315 404.911 205.765 404.655 207.216ZM371.153 219.696C369.788 220.933 368.444 222.192 367.122 223.472C365.799 224.709 364.562 225.904 363.41 227.056C362.3 228.208 361.276 229.275 360.337 230.256C359.441 231.237 358.716 232.048 358.161 232.688C357.18 233.925 356.412 234.971 355.858 235.824C355.345 236.635 355.324 237.147 355.793 237.36C356.049 237.488 356.412 237.445 356.882 237.232C357.394 237.019 357.948 236.741 358.545 236.4C359.185 236.016 359.804 235.611 360.401 235.184C360.999 234.715 361.532 234.309 362.002 233.968C363.026 233.157 364.092 232.261 365.201 231.28C366.354 230.299 367.314 229.467 368.082 228.784C368.167 228.699 368.295 228.635 368.465 228.592C368.636 228.507 368.764 228.549 368.85 228.72C368.935 228.933 368.935 229.104 368.85 229.232C368.764 229.317 368.658 229.424 368.53 229.552C367.591 230.363 366.545 231.259 365.393 232.24C364.284 233.179 363.345 233.968 362.577 234.608C362.108 234.992 361.553 235.419 360.913 235.888C360.316 236.315 359.697 236.72 359.057 237.104C358.417 237.488 357.799 237.808 357.201 238.064C356.647 238.32 356.156 238.448 355.729 238.448C355.175 238.448 354.705 238.32 354.321 238.064C353.937 237.851 353.66 237.509 353.489 237.04C353.361 236.571 353.383 236.016 353.553 235.376C353.724 234.693 354.108 233.904 354.705 233.008C352.828 234.587 351.079 235.888 349.457 236.912C347.836 237.936 346.513 238.448 345.489 238.448C344.38 238.448 343.697 238.085 343.441 237.36C343.185 236.635 343.249 235.717 343.633 234.608C343.975 233.499 344.572 232.304 345.425 231.024C346.236 229.701 347.196 228.485 348.305 227.376C349.585 226.096 351.015 224.88 352.593 223.728C354.215 222.576 355.793 221.616 357.33 220.848C358.908 220.08 360.359 219.547 361.682 219.248C363.004 218.949 364.007 218.992 364.69 219.376C365.116 219.632 365.287 220.123 365.201 220.848C365.159 221.573 364.519 222.533 363.281 223.728C364.561 222.661 365.628 221.829 366.482 221.232C367.378 220.592 368.103 220.165 368.658 219.952C369.426 219.696 370.257 219.611 371.153 219.696ZM364.177 220.208C363.58 219.739 362.13 220.272 359.826 221.808C357.522 223.301 354.663 225.669 351.249 228.912C350.268 229.851 349.351 230.811 348.497 231.792C347.687 232.731 347.025 233.605 346.513 234.416C345.959 235.184 345.596 235.845 345.425 236.4C345.255 236.955 345.361 237.317 345.745 237.488C346.044 237.616 346.577 237.488 347.345 237.104C348.156 236.677 349.116 236.08 350.225 235.312C351.377 234.501 352.615 233.52 353.937 232.368C355.26 231.216 356.604 229.936 357.969 228.528C358.609 227.888 359.335 227.141 360.146 226.288C360.999 225.435 361.767 224.603 362.45 223.792C363.175 222.981 363.73 222.256 364.114 221.616C364.498 220.933 364.519 220.464 364.177 220.208ZM472.176 199.728C471.877 201.221 471.365 202.395 470.64 203.248C469.914 204.101 469.253 204.677 468.656 204.976C468.4 205.104 468.229 205.168 468.144 205.168C468.058 205.125 467.994 205.061 467.951 204.976C467.909 204.891 467.888 204.827 467.888 204.784C467.93 204.741 468.08 204.613 468.336 204.4C468.805 204.016 469.253 203.461 469.68 202.736C470.149 201.968 470.469 201.157 470.64 200.304C470.938 198.768 470.874 197.296 470.448 195.888C470.064 194.437 469.296 193.179 468.144 192.112C467.034 191.003 465.498 190.128 463.535 189.488C461.616 188.848 459.269 188.528 456.496 188.528C451.546 188.528 446.512 189.723 441.392 192.112C436.272 194.501 431.237 197.765 426.288 201.904C423.002 204.635 419.717 207.579 416.432 210.736C413.189 213.893 409.84 217.264 406.384 220.848C406.981 220.848 407.813 220.848 408.88 220.848C409.989 220.805 410.949 220.805 411.76 220.848C411.845 220.848 411.93 220.869 412.016 220.912C412.101 220.955 412.122 221.061 412.08 221.232C411.952 221.488 411.717 221.616 411.375 221.616C411.034 221.616 410.608 221.637 410.096 221.68C409.583 221.68 409.05 221.701 408.496 221.744C407.941 221.744 407.407 221.765 406.896 221.808C406.383 221.808 405.935 221.808 405.552 221.808C404.442 223.003 403.269 224.283 402.031 225.648C400.837 227.013 399.621 228.379 398.383 229.744C397.189 231.067 396.037 232.325 394.927 233.52C393.818 234.715 392.858 235.739 392.047 236.592C389.018 239.792 385.946 242.885 382.831 245.872C379.674 248.901 376.773 251.461 374.127 253.552C370.031 256.837 366.106 259.611 362.351 261.872C358.597 264.176 354.97 266.032 351.471 267.44C347.93 268.891 344.517 269.936 341.231 270.576C337.903 271.216 334.661 271.493 331.503 271.408C328.005 271.323 324.997 270.704 322.479 269.552C319.919 268.443 317.935 266.971 316.527 265.136C315.077 263.301 314.223 261.232 313.967 258.928C313.711 256.624 314.117 254.277 315.183 251.888C315.311 251.675 315.461 251.419 315.631 251.12C315.802 250.821 315.994 250.544 316.207 250.288C316.378 250.075 316.57 249.904 316.783 249.776C316.954 249.648 317.103 249.648 317.231 249.776C317.274 249.861 317.21 250.096 317.039 250.48C316.869 250.864 316.719 251.184 316.591 251.44C315.439 253.787 314.97 256.069 315.183 258.288C315.354 260.549 316.101 262.555 317.423 264.304C318.746 266.053 320.581 267.483 322.927 268.592C325.274 269.701 328.026 270.299 331.183 270.384C334.682 270.469 338.074 270.107 341.359 269.296C344.645 268.528 347.909 267.376 351.151 265.84C354.394 264.304 357.637 262.448 360.879 260.272C364.079 258.139 367.343 255.749 370.671 253.104C371.653 252.336 372.847 251.333 374.255 250.096C375.621 248.901 377.071 247.579 378.607 246.128C380.143 244.677 381.722 243.141 383.343 241.52C384.922 239.941 386.458 238.384 387.951 236.848C389.957 234.757 392.069 232.496 394.287 230.064C396.549 227.632 399.066 224.88 401.839 221.808C401.285 221.808 400.687 221.829 400.047 221.872C399.407 221.915 398.703 221.979 397.935 222.064C397.509 222.107 397.338 222 397.423 221.744C397.466 221.616 397.551 221.531 397.679 221.488C397.807 221.445 397.914 221.403 397.999 221.36C398.17 221.317 398.447 221.275 398.831 221.232C399.215 221.189 399.621 221.168 400.047 221.168C400.517 221.125 400.965 221.083 401.391 221.04C401.861 220.997 402.266 220.976 402.608 220.976C404.485 219.013 406.384 217.051 408.304 215.088C410.266 213.083 412.186 211.163 414.063 209.328C415.984 207.451 417.861 205.701 419.696 204.08C421.53 202.416 423.301 200.901 425.008 199.536C427.226 197.787 429.616 196.187 432.176 194.736C434.778 193.243 437.466 191.963 440.24 190.896C443.013 189.787 445.808 188.933 448.624 188.336C451.44 187.739 454.192 187.44 456.88 187.44C459.952 187.44 462.533 187.824 464.624 188.592C466.714 189.317 468.357 190.277 469.552 191.472C470.746 192.624 471.536 193.925 471.92 195.376C472.346 196.827 472.432 198.277 472.176 199.728ZM420.841 219.312C421.353 219.611 421.63 219.995 421.673 220.464C421.716 220.933 421.588 221.424 421.289 221.936C420.99 222.448 420.564 222.981 420.009 223.536C419.497 224.048 418.942 224.517 418.345 224.944C417.833 225.285 417.172 225.648 416.361 226.032C415.593 226.373 414.804 226.672 413.993 226.928C413.225 227.141 412.478 227.291 411.753 227.376C411.07 227.461 410.58 227.397 410.281 227.184C409.3 228.123 408.318 229.147 407.337 230.256C406.356 231.323 405.524 232.368 404.841 233.392C404.201 234.373 403.796 235.248 403.625 236.016C403.412 236.741 403.604 237.232 404.201 237.488C404.798 237.701 405.673 237.637 406.825 237.296C407.977 236.912 409.214 236.293 410.537 235.44C412.073 234.459 413.588 233.349 415.081 232.112C416.574 230.875 417.769 229.829 418.665 228.976C418.793 228.848 418.942 228.741 419.113 228.656C419.326 228.571 419.476 228.592 419.561 228.72C419.689 228.891 419.689 229.061 419.561 229.232C419.476 229.36 419.369 229.488 419.241 229.616C418.132 230.597 416.98 231.6 415.785 232.624C414.59 233.605 413.289 234.587 411.881 235.568C410.772 236.379 409.492 237.104 408.041 237.744C406.633 238.341 405.31 238.597 404.073 238.512C403.22 238.427 402.494 238.128 401.897 237.616C401.3 237.061 401.065 236.208 401.193 235.056C401.193 234.757 401.278 234.352 401.449 233.84C401.577 233.285 401.833 232.645 402.217 231.92C402.558 231.195 403.049 230.405 403.689 229.552C404.329 228.656 405.161 227.717 406.185 226.736C407.38 225.584 408.702 224.496 410.153 223.472C411.646 222.405 413.076 221.531 414.441 220.848C415.849 220.123 417.129 219.611 418.281 219.312C419.433 219.013 420.286 219.013 420.841 219.312ZM420.457 219.888C420.244 219.717 419.753 219.845 418.985 220.272C418.26 220.699 417.406 221.275 416.425 222C415.444 222.683 414.42 223.472 413.353 224.368C412.329 225.221 411.433 226.032 410.665 226.8C410.921 226.885 411.284 226.885 411.753 226.8C412.265 226.715 412.841 226.544 413.481 226.288C414.121 226.032 414.782 225.712 415.465 225.328C416.19 224.901 416.916 224.411 417.641 223.856C418.708 223.003 419.518 222.192 420.073 221.424C420.67 220.656 420.798 220.144 420.457 219.888ZM434.153 219.312C434.666 219.611 434.943 219.995 434.986 220.464C435.028 220.933 434.9 221.424 434.601 221.936C434.303 222.448 433.876 222.981 433.321 223.536C432.81 224.048 432.255 224.517 431.658 224.944C431.145 225.285 430.484 225.648 429.674 226.032C428.905 226.373 428.116 226.672 427.306 226.928C426.537 227.141 425.791 227.291 425.065 227.376C424.383 227.461 423.892 227.397 423.593 227.184C422.612 228.123 421.631 229.147 420.649 230.256C419.668 231.323 418.836 232.368 418.153 233.392C417.513 234.373 417.108 235.248 416.937 236.016C416.724 236.741 416.916 237.232 417.513 237.488C418.111 237.701 418.985 237.637 420.137 237.296C421.289 236.912 422.527 236.293 423.849 235.44C425.385 234.459 426.9 233.349 428.394 232.112C429.887 230.875 431.082 229.829 431.977 228.976C432.106 228.848 432.255 228.741 432.425 228.656C432.639 228.571 432.788 228.592 432.873 228.72C433.002 228.891 433.002 229.061 432.873 229.232C432.788 229.36 432.682 229.488 432.554 229.616C431.444 230.597 430.292 231.6 429.097 232.624C427.903 233.605 426.601 234.587 425.193 235.568C424.084 236.379 422.804 237.104 421.353 237.744C419.945 238.341 418.623 238.597 417.385 238.512C416.532 238.427 415.807 238.128 415.209 237.616C414.612 237.061 414.377 236.208 414.505 235.056C414.505 234.757 414.591 234.352 414.761 233.84C414.889 233.285 415.145 232.645 415.529 231.92C415.871 231.195 416.361 230.405 417.001 229.552C417.641 228.656 418.473 227.717 419.497 226.736C420.692 225.584 422.015 224.496 423.465 223.472C424.959 222.405 426.388 221.531 427.753 220.848C429.161 220.123 430.441 219.611 431.594 219.312C432.745 219.013 433.599 219.013 434.153 219.312ZM433.77 219.888C433.556 219.717 433.065 219.845 432.297 220.272C431.572 220.699 430.719 221.275 429.738 222C428.756 222.683 427.732 223.472 426.665 224.368C425.641 225.221 424.745 226.032 423.977 226.8C424.233 226.885 424.596 226.885 425.065 226.8C425.577 226.715 426.153 226.544 426.793 226.288C427.433 226.032 428.095 225.712 428.778 225.328C429.503 224.901 430.228 224.411 430.953 223.856C432.02 223.003 432.831 222.192 433.385 221.424C433.983 220.656 434.111 220.144 433.77 219.888ZM519.85 199.728C519.594 201.221 519.082 202.395 518.314 203.248C517.589 204.101 516.927 204.677 516.33 204.976C515.946 205.189 515.711 205.189 515.626 204.976C515.583 204.891 515.583 204.827 515.626 204.784C515.669 204.741 515.797 204.613 516.01 204.4C516.479 204.016 516.949 203.461 517.418 202.736C517.887 201.968 518.207 201.157 518.378 200.304C518.634 198.768 518.57 197.296 518.186 195.888C517.802 194.437 517.034 193.179 515.882 192.112C514.73 191.003 513.173 190.128 511.21 189.488C509.29 188.848 506.943 188.528 504.17 188.528C501.695 188.528 499.199 188.912 496.682 189.68C494.207 190.405 491.733 191.408 489.258 192.688C486.783 193.925 484.351 195.355 481.962 196.976C479.573 198.597 477.269 200.304 475.05 202.096C473.13 203.589 471.381 205.019 469.802 206.384C468.223 207.707 466.687 209.051 465.194 210.416C463.701 211.781 462.165 213.189 460.586 214.64C459.05 216.091 457.343 217.691 455.466 219.44C454.143 220.677 452.821 221.936 451.498 223.216C450.218 224.496 449.002 225.733 447.85 226.928C446.698 228.123 445.653 229.232 444.714 230.256C443.775 231.237 443.029 232.048 442.474 232.688C441.493 233.925 440.725 234.971 440.17 235.824C439.658 236.635 439.637 237.147 440.106 237.36C440.362 237.488 440.746 237.445 441.258 237.232C441.813 236.976 442.389 236.656 442.986 236.272C443.626 235.888 444.245 235.483 444.842 235.056C445.439 234.629 445.93 234.267 446.314 233.968C447.338 233.157 448.341 232.325 449.322 231.472C450.346 230.576 451.349 229.701 452.33 228.848C452.458 228.72 452.586 228.613 452.714 228.528C452.842 228.443 452.991 228.507 453.162 228.72C453.29 228.891 453.29 229.061 453.162 229.232C453.077 229.36 452.97 229.467 452.842 229.552C452.33 230.021 451.797 230.491 451.242 230.96C450.687 231.429 450.133 231.899 449.578 232.368C449.066 232.795 448.575 233.221 448.106 233.648C447.637 234.032 447.231 234.352 446.89 234.608C446.421 234.992 445.866 235.419 445.226 235.888C444.629 236.315 444.01 236.72 443.37 237.104C442.73 237.488 442.111 237.808 441.514 238.064C440.959 238.32 440.469 238.448 440.042 238.448C438.933 238.448 438.186 238 437.802 237.104C437.461 236.165 437.866 234.8 439.018 233.008C437.141 234.587 435.391 235.888 433.77 236.912C432.149 237.936 430.826 238.448 429.802 238.448C428.693 238.448 428.01 238.085 427.754 237.36C427.498 236.635 427.562 235.717 427.946 234.608C428.287 233.499 428.885 232.304 429.738 231.024C430.549 229.701 431.509 228.485 432.618 227.376C433.898 226.096 435.349 224.901 436.97 223.792C438.591 222.64 440.17 221.68 441.706 220.912C443.285 220.144 444.735 219.611 446.058 219.312C447.381 219.013 448.362 219.056 449.002 219.44C449.471 219.653 449.663 220.059 449.578 220.656C449.535 221.253 449.279 221.851 448.81 222.448C450.047 221.125 451.647 219.504 453.61 217.584C455.615 215.664 457.77 213.659 460.074 211.568C462.378 209.477 464.725 207.429 467.114 205.424C469.546 203.376 471.829 201.584 473.962 200.048C476.266 198.384 478.655 196.784 481.13 195.248C483.605 193.712 486.122 192.368 488.682 191.216C491.285 190.064 493.909 189.147 496.554 188.464C499.199 187.781 501.866 187.44 504.554 187.44C507.626 187.44 510.207 187.824 512.298 188.592C514.389 189.317 516.031 190.277 517.226 191.472C518.463 192.624 519.274 193.925 519.658 195.376C520.042 196.827 520.106 198.277 519.85 199.728ZM448.49 220.208C447.85 219.696 446.378 220.208 444.074 221.744C441.813 223.28 438.975 225.669 435.562 228.912C434.581 229.851 433.663 230.789 432.81 231.728C431.999 232.667 431.317 233.541 430.762 234.352C430.207 235.163 429.866 235.845 429.738 236.4C429.567 236.955 429.674 237.317 430.058 237.488C430.357 237.616 430.89 237.488 431.658 237.104C432.469 236.677 433.429 236.08 434.538 235.312C435.69 234.501 436.927 233.52 438.25 232.368C439.573 231.216 440.917 229.936 442.282 228.528C442.922 227.888 443.647 227.141 444.458 226.288C445.311 225.435 446.079 224.603 446.762 223.792C447.487 222.939 448.021 222.192 448.362 221.552C448.746 220.912 448.789 220.464 448.49 220.208Z" fill="#2B2B2B"/>
</svg>
